<svg xmlns="http://www.w3.org/2000/svg" viewBox="0 0 512 512">
  <defs>
    <linearGradient id="zpcGrad" x1="0%" y1="0%" x2="100%" y2="100%">
      <stop offset="0%" stop-color="#DC2626" />
      <stop offset="50%" stop-color="#C81E1E" />
      <stop offset="100%" stop-color="#881337" />
    </linearGradient>
    <filter id="shadow" x="-10%" y="-10%" width="120%" height="120%">
      <feDropShadow dx="0" dy="6" stdDeviation="8" flood-color="#000000" flood-opacity="0.5"/>
    </filter>
  </defs>
  <!-- Outer Shield Base -->
  <path d="M256 32 C140 45 64 64 64 160 C64 330 180 440 256 480 C332 440 448 330 448 160 C448 64 372 45 256 32 Z" fill="url(#zpcGrad)" filter="url(#shadow)"/>
  <!-- Inner Metallic Border -->
  <path d="M256 52 C155 63 88 80 88 164 C88 316 190 416 256 454 C322 416 424 316 424 164 C424 80 357 63 256 52 Z" fill="none" stroke="#F8FAFC" stroke-width="8" stroke-opacity="0.25"/>
  <!-- Checkmark / Audit Shield Core -->
  <path d="M210 320 L140 250 L168 222 L210 264 L344 130 L372 158 Z" fill="#F8FAFC"/>
  <!-- ZPC Text Banner underneath Checkmark -->
  <text x="256" y="395" font-family="'Outfit', 'Inter', -apple-system, sans-serif" font-size="64" font-weight="900" fill="#F8FAFC" text-anchor="middle" letter-spacing="4">ZPC</text>
</svg>